<svg xmlns="http://www.w3.org/2000/svg" xmlns:xlink="http://www.w3.org/1999/xlink" version="1.0" x="0px" y="0px" viewBox="0 0 100 125" enable-background="new 0 0 100 100" xml:space="preserve"><g><path fill="#000000" d="M85.057,39.805c-0.004-0.007-0.012-0.01-0.016-0.017c-3.076-4.811-6.813-9.43-11.109-13.727   c-4.294-4.293-8.908-8.027-13.714-11.098c-0.008-0.005-0.011-0.013-0.019-0.018c-0.218-0.136-0.467-0.17-0.7-0.13   c-0.019,0.003-0.037-0.002-0.056,0.002c-0.001,0-0.003,0.001-0.004,0.002c-0.248,0.056-0.475,0.205-0.621,0.436   c-0.004,0.006-0.004,0.014-0.008,0.021L44.711,37.726c-0.001,0.002-0.001,0.004-0.002,0.006c-0.001,0.002-0.004,0.003-0.005,0.005   c-1.416,2.322-1.083,5.279,0.8,7.233c0.012,0.016,0.032,0.022,0.045,0.037c0.014,0.015,0.018,0.035,0.033,0.049l0.585,0.585   L33.279,58.529c0,0.001,0,0.001-0.001,0.001s-0.001,0.001-0.001,0.002L16.5,75.309c-0.003,0.003-0.007,0.004-0.01,0.007   c-1.094,1.093-1.697,2.546-1.697,4.093s0.603,3.001,1.696,4.095c1.132,1.132,2.618,1.698,4.104,1.697   c1.482,0,2.964-0.563,4.092-1.691c0.005-0.006,0.007-0.014,0.013-0.019l16.757-16.758c0.004-0.004,0.009-0.005,0.013-0.009   c0.002-0.002,0.002-0.006,0.005-0.008l12.885-12.885l0.584,0.584c0.01,0.01,0.023,0.013,0.034,0.022   c0.006,0.005,0.008,0.014,0.014,0.019c1.145,1.115,2.663,1.693,4.189,1.693c1.093,0,2.19-0.301,3.157-0.91   c0.014-0.008,0.028-0.01,0.042-0.019l22.362-14.037c0.001,0,0.001-0.001,0.001-0.001c0.001,0,0.001,0,0.002-0.001   c0.023-0.015,0.036-0.04,0.059-0.057C85.212,40.815,85.335,40.248,85.057,39.805z M34.082,71.278l-5.361-5.361l5.19-5.191   c0.826,0.905,1.679,1.81,2.614,2.742c0.944,0.945,1.849,1.799,2.748,2.621L34.082,71.278z M17.904,82.089   c-0.716-0.716-1.11-1.668-1.11-2.681c0-1.009,0.392-1.956,1.104-2.671c0.002-0.003,0.006-0.003,0.009-0.006l9.4-9.4l5.361,5.361   l-9.4,9.4c-0.003,0.004-0.004,0.009-0.008,0.012C21.779,83.573,19.381,83.564,17.904,82.089z M40.688,64.673   c-0.898-0.818-1.802-1.672-2.75-2.62c-0.937-0.934-1.789-1.837-2.612-2.742l12.255-12.256l5.363,5.362L40.688,64.673z    M56.356,52.995c-0.005-0.005-0.012-0.007-0.017-0.011l-1.274-1.274l0,0l0,0l-6.776-6.775c0,0,0-0.001-0.001-0.001   s-0.001,0-0.001-0.001l-1.276-1.276c-0.006-0.006-0.008-0.015-0.014-0.021c-1.298-1.297-1.539-3.295-0.585-4.858c0,0,0,0,0-0.001   l13.555-21.583c4.386,2.889,8.605,6.339,12.55,10.282c3.945,3.946,7.398,8.169,10.291,12.561L61.317,53.526   c-0.005,0.004-0.012,0.004-0.017,0.007C59.751,54.532,57.674,54.303,56.356,52.995z"/><path fill="#000000" d="M52.054,40.181c-0.391-0.391-1.023-0.391-1.415,0c-0.391,0.391-0.391,1.024,0,1.414l7.765,7.762   c0.195,0.195,0.451,0.293,0.707,0.293s0.512-0.098,0.707-0.293c0.391-0.391,0.391-1.024,0-1.414L52.054,40.181z"/></g><text x="0" y="115" fill="#000000" font-size="5px" font-weight="bold" font-family="'Helvetica Neue', Helvetica, Arial-Unicode, Arial, Sans-serif">Created by DTDesign</text><text x="0" y="120" fill="#000000" font-size="5px" font-weight="bold" font-family="'Helvetica Neue', Helvetica, Arial-Unicode, Arial, Sans-serif">from the Noun Project</text></svg>